<svg xmlns="http://www.w3.org/2000/svg" preserveAspectRatio="xMinYMin meet" viewBox="0 0 40 40" class="courses-plus-icon" aria-labelledby="coursesPlusIcon4981665" role="img"><title id="coursesPlusIcon4981665">Courses Plus Icon</title><path d="M34,4V1c0-0.6,0.4-1,1-1s1,0.4,1,1v3h3c0.6,0,1,0.4,1,1s-0.4,1-1,1h-3v3c0,0.6-0.4,1-1,1s-1-0.4-1-1V6h-3c-0.6,0-1-0.4-1-1&#10;&#9;s0.4-1,1-1H34z M6,32v-5c0-0.6,0.4-1,1-1s1,0.4,1,1v5h5c0.6,0,1,0.4,1,1s-0.4,1-1,1H8v5c0,0.6-0.4,1-1,1s-1-0.4-1-1v-5H1&#10;&#9;c-0.6,0-1-0.4-1-1s0.4-1,1-1H6z M18,17v-6.5C18,9.1,19.1,8,20.5,8S23,9.1,23,10.5V17h6.5c1.4,0,2.5,1.1,2.5,2.5S30.9,22,29.5,22H23&#10;&#9;v6.5c0,1.4-1.1,2.5-2.5,2.5S18,29.9,18,28.5V22h-6.5C10.1,22,9,20.9,9,19.5s1.1-2.5,2.5-2.5H18z"/></svg>