<svg xmlns="http://www.w3.org/2000/svg" preserveAspectRatio="xMinYMin meet" viewBox="0 0 40 40" class="project-review-icon" aria-labelledby="projectReviewIcon8112499" role="img"><title id="projectReviewIcon8112499">Folder With Magnifying Glass</title><path d="M16.2,28H2.4c-0.6,0-1.2-0.2-1.7-0.7c-0.4-0.4-0.7-1-0.7-1.7V3.8l0,0l0-1.3C0,1.1,1.1,0,2.5,0h5.6c1.4,0,2.5,1.1,2.5,2.5&#10;&#9;v1.3h21c1.3,0,2.4,1.1,2.4,2.4v11.4c-3.1-2.6-7.4-3.2-11.2-1.7C18.7,17.5,16,21.6,16,26C16,26.7,16.1,27.4,16.2,28z M34.2,31.4&#10;&#9;l5.2,5.2c0.8,0.8,0.8,2,0,2.8c-0.8,0.8-2,0.8-2.8,0c0,0,0,0,0,0L31.2,34c-1.3,0.7-2.7,1-4.2,1c-5,0-9-4-9-9c0-3.6,2.2-6.9,5.6-8.3&#10;&#9;c3.4-1.4,7.2-0.6,9.8,2s3.3,6.4,2,9.8C35,30.1,34.7,30.8,34.2,31.4z M24.7,20.5C22.5,21.4,21,23.6,21,26c0,3.3,2.7,6,6,6&#10;&#9;c2.4,0,4.6-1.5,5.5-3.7c0.9-2.2,0.4-4.8-1.3-6.5C29.5,20,26.9,19.5,24.7,20.5z"/></svg>