<svg xmlns="http://www.w3.org/2000/svg" preserveAspectRatio="xMinYMin meet" viewBox="0 0 40 31" class="community-icon" aria-labelledby="communityIcon6678008" role="img"><title id="communityIcon6678008">Community</title><path d="M8,28H0.6C0.3,28,0,27.7,0,27.4v-5C0,18.3,3.5,15,7.8,15h1.5c0.9,0,1.8,0.2,2.7,0.5c-0.2,0.2-0.5,0.4-0.7,0.6&#10;&#9;c-2.1,2-3.3,4.7-3.3,7.6V28z M3,8c0-2.8,2.2-5,4.8-5c1.3,0,2.6,0.6,3.5,1.6c-0.6,2-0.3,4.1,0.6,6C11.1,12.1,9.5,13,7.8,13&#10;&#9;C5.2,13,3,10.8,3,8z M32.2,15c4.3,0,7.8,3.3,7.8,7.4v5c0,0.3-0.3,0.6-0.6,0.6H32v-4.4c0-2.8-1.2-5.6-3.3-7.6&#10;&#9;c-0.2-0.2-0.5-0.4-0.7-0.6c0.9-0.3,1.8-0.5,2.7-0.5H32.2z M27.6,4.6c0.9-1,2.2-1.6,3.5-1.6C33.8,3,36,5.2,36,8c0,2.8-2.2,5-4.8,5&#10;&#9;c-1.7,0-3.3-0.9-4.2-2.4C27.9,8.7,28.2,6.6,27.6,4.6z M30,24.1v6.1c0,0.5-0.4,0.9-0.9,0.9H10.9c-0.5,0-0.9-0.4-0.9-0.9v-6.1&#10;&#9;c0-5,4.1-9.1,9.1-9.1h1.7C25.9,15,30,19.1,30,24.1z M23.8,10.7c-2.4,2.3-6.2,2.3-8.6,0s-2.4-6.1,0-8.4s6.2-2.3,8.6,0&#10;&#9;S26.2,8.4,23.8,10.7z"/></svg>