<svg xmlns="http://www.w3.org/2000/svg" viewBox="0 0 1200 1200" aria-labelledby="ladderTrack" role="img"><title id="ladderTrack">Ladder Moving Up</title><defs><style>.e80a6d2f-dec4-48d6-a284-5fe46782b06e{fill:#ecc148;opacity:0.83;}.a1fd50d8-912a-4c52-b841-11a42e037e6b{fill:none;stroke:#264e96;stroke-linecap:round;stroke-miterlimit:10;stroke-width:28px;}</style></defs><g id="b993368f-f2c1-42b3-8d65-ec7cdafd0bc6" data-name="color layering"><circle class="e80a6d2f-dec4-48d6-a284-5fe46782b06e" cx="883.6318" cy="316.3682" r="316.3273"/></g><g id="bccc0bb3-f052-45a4-83af-9c9f6e515c25" data-name="lines"><path class="a1fd50d8-912a-4c52-b841-11a42e037e6b" d="M261.1445,484.1894V140.4643a61.8322,61.8322,0,0,1,61.8322-61.8322h6.6261a61.8323,61.8323,0,0,1,61.8323,61.8322v973.517a61.8323,61.8323,0,0,1-61.8323,61.8322h-6.6261a61.8322,61.8322,0,0,1-61.8322-61.8322V906.667"/><line class="a1fd50d8-912a-4c52-b841-11a42e037e6b" x1="261.1445" y1="830.9449" x2="261.1445" y2="702.5145"/><rect class="a1fd50d8-912a-4c52-b841-11a42e037e6b" x="808.5649" y="78.6321" width="130.2905" height="1097.1815" rx="61.8322"/><rect class="a1fd50d8-912a-4c52-b841-11a42e037e6b" x="547.2329" y="418.6579" width="105.5342" height="417.1299" transform="translate(-27.2228 1227.2228) rotate(-90)"/><rect class="a1fd50d8-912a-4c52-b841-11a42e037e6b" x="547.2329" y="139.2137" width="105.5342" height="417.1299" transform="translate(252.2214 947.7786) rotate(-90)"/><rect class="a1fd50d8-912a-4c52-b841-11a42e037e6b" x="547.2329" y="698.102" width="105.5342" height="417.1299" transform="translate(-306.667 1506.667) rotate(-90)"/><line class="a1fd50d8-912a-4c52-b841-11a42e037e6b" x1="261.1445" y1="627.2228" x2="261.1445" y2="465.7708"/></g></svg>