<svg xmlns="http://www.w3.org/2000/svg" viewBox="0 0 1200 1200" aria-labelledby="floatingChatBoxes" role="img"><title id="floatingChatBoxes">Floating Chat Boxes</title><defs><style>.ecad261a-b6a1-4733-9be0-cc034a3c76bb{opacity:0.8;}.a93a9ca7-ce7c-4fe2-9ca5-58685db4d22f{fill:#70e08d;}.e40b7050-3f08-4566-b9d2-17ac37833f2c{fill:none;stroke:#264e96;stroke-linecap:round;stroke-miterlimit:10;stroke-width:28px;}.b683d6ae-9df3-4777-bce1-9ac2c1abd37a{fill:#264e96;}</style></defs><g id="b8dba19d-fe17-412f-9567-5316f955cbd1" data-name="lines"><g class="ecad261a-b6a1-4733-9be0-cc034a3c76bb"><rect class="a93a9ca7-ce7c-4fe2-9ca5-58685db4d22f" x="590.8297" y="752.3706" width="609.1703" height="447.6294" rx="55.4187"/></g><path class="e40b7050-3f08-4566-b9d2-17ac37833f2c" d="M876.83,476.7205h92.7569a53.831,53.831,0,0,1,53.831,53.8309V872.4769c0,29.107-25.6882,50.5089-52.2574,53.5427a3.4461,3.4461,0,0,0-3.0681,3.4232c-.0019,18.3405-.0018,110.3827-.0018,110.2378a15.4842,15.4842,0,0,1-24.8442,12.335s-134.65-116.065-145.1987-125.1589a2.264,2.264,0,0,0-1.4862-.549H459.3257a53.831,53.831,0,0,1-53.831-53.8309V671.1638"/><path class="e40b7050-3f08-4566-b9d2-17ac37833f2c" d="M786.79,88.3a66.566,66.566,0,0,0-66.557-65.4852H89.2613A66.5656,66.5656,0,0,0,22.6957,89.38V512.1945c0,35.87,31.5481,62.2765,64.2825,66.17a4.635,4.635,0,0,1,4.1312,4.5835c.0023,23.37.0023,136.0054.0023,136.0054a19.1473,19.1473,0,0,0,30.7215,15.2531s171.3736-147.72,180.0182-155.1729a1.1286,1.1286,0,0,1,.7461-.2734h417.636a66.5655,66.5655,0,0,0,66.5655-66.5655V89.38Q786.799,88.8392,786.79,88.3Z"/><circle class="b683d6ae-9df3-4777-bce1-9ac2c1abd37a" cx="299.1004" cy="299.96" r="29.9178"/><circle class="b683d6ae-9df3-4777-bce1-9ac2c1abd37a" cx="404.7475" cy="298.0901" r="29.9178"/><circle class="b683d6ae-9df3-4777-bce1-9ac2c1abd37a" cx="510.3946" cy="298.0901" r="29.9178"/></g></svg>