<svg xmlns="http://www.w3.org/2000/svg" viewBox="0 0 1200 1200" aria-labelledby="group-of-people" role="img"><title id="group-of-people">Group of People</title><defs><style>.b587744a-280b-419d-80f0-a181246ba84a{fill:#fc8738;opacity:0.85;}.b3ac7aa8-d5ea-4e21-9401-7e05b3ee2c64,.f4c781bf-7475-4360-a703-c276805c52d0{fill:none;stroke:#264e96;stroke-miterlimit:10;stroke-width:28px;}.f4c781bf-7475-4360-a703-c276805c52d0{stroke-linecap:round;}</style></defs><g id="a7521373-4aaf-4116-855d-df05c7e9b980" data-name="color layering"><circle class="b587744a-280b-419d-80f0-a181246ba84a" cx="883.632" cy="316.368" r="316.3434"/></g><g id="a408dfb6-ec4b-4d33-b68d-9f56b2f6e84c" data-name="lines"><path class="b3ac7aa8-d5ea-4e21-9401-7e05b3ee2c64" d="M540.3817,552.0573h35.99a211.1,211.1,0,0,1,211.1,211.1V890.27a39.8047,39.8047,0,0,1-39.8047,39.8047H369.0867A39.8047,39.8047,0,0,1,329.282,890.27V763.157A211.1,211.1,0,0,1,540.3817,552.0573Z"/><circle class="b3ac7aa8-d5ea-4e21-9401-7e05b3ee2c64" cx="558.3765" cy="339.4157" r="131.5024"/><path class="f4c781bf-7475-4360-a703-c276805c52d0" d="M847.8372,578.8137A186.5963,186.5963,0,0,1,931.91,558.94h0c103.4855,0,187.3772,83.8916,187.3772,187.3772V836.79a31.3317,31.3317,0,0,1-31.3317,31.3317H890.3267"/><circle class="b3ac7aa8-d5ea-4e21-9401-7e05b3ee2c64" cx="931.9097" cy="377.4225" r="107.5564"/><path class="f4c781bf-7475-4360-a703-c276805c52d0" d="M288.82,578.8137a186.5963,186.5963,0,0,0-84.0723-19.874h0C101.2615,558.94,17.37,642.8313,17.37,746.3169V836.79a31.3317,31.3317,0,0,0,31.3317,31.3317H246.33"/><circle class="b3ac7aa8-d5ea-4e21-9401-7e05b3ee2c64" cx="204.7472" cy="377.4225" r="107.5564"/></g></svg>