<svg version="1.1" id="Layer_1" xmlns="http://www.w3.org/2000/svg" xmlns:xlink="http://www.w3.org/1999/xlink" x="0px" y="0px" viewBox="0 0 1200 1200" style="enable-background:new 0 0 1200 1200;" xml:space="preserve"><style type="text/css">
	.st0{opacity:0.8;fill:#70E08D;enable-background:new    ;}
	.st1{fill:none;stroke:#264E96;stroke-width:28;stroke-miterlimit:10;}
	.st2{fill:#264E96;}
	.st3{fill:none;stroke:#264E96;stroke-width:28;stroke-linecap:round;stroke-miterlimit:10;}
	.st4{fill:none;stroke:#264E96;stroke-width:20;stroke-miterlimit:10;}
	.st5{fill:none;stroke:#264E96;stroke-width:20;stroke-linecap:round;stroke-miterlimit:10;}
	.st6{enable-background:new    ;}
</style><title id="interactiveBrowserWindow">Interactive Browser Window</title><g id="f8037e53-0ffd-4adb-a9eb-e6482d22ac64"><path class="st0" d="M1144.6,1200H607.5c-30.6,0-55.4-24.8-55.4-55.4V779.3c0-30.6,24.8-55.4,55.4-55.4h537.1&#10;&#9;&#9;c30.6,0,55.4,24.8,55.4,55.4v365.3C1200,1175.2,1175.2,1200,1144.6,1200z"/><line class="st1" x1="22.8" y1="353" x2="1109.1" y2="353"/><circle class="st2" cx="106.6" cy="283.5" r="21.2"/><circle class="st2" cx="178.1" cy="283.5" r="21.2"/><circle class="st2" cx="249.6" cy="283.5" r="21.2"/><path class="st3" d="M63.1,214.2h1007.6c21.6,0,39,17.5,39,39v693.5c0,21.6-17.5,39-39,39H63.1c-21.6,0-39-17.5-39-39V253.2&#10;&#9;&#9;C24,231.7,41.5,214.2,63.1,214.2z"/><path class="st4" d="M572,633.1L624,785c1.9,5.7,8.1,8.7,13.8,6.7c1.6-0.5,3-1.4,4.2-2.6l34.4-64.9c0.2-0.3,0.4-0.6,0.7-0.7&#10;&#9;&#9;l64.8-34.3c4.2-4.2,4.2-11.1,0-15.3c-1.2-1.2-2.6-2.1-4.2-2.6l-151.9-51.9c-5.7-1.9-11.8,1.1-13.8,6.7&#10;&#9;&#9;C571.3,628.4,571.3,630.9,572,633.1z"/><line class="st5" x1="738.3" y1="785.5" x2="676.6" y2="723.9"/><g class="st6"><path class="st2" d="M285.2,582.7l42.7-96.4c3-6.7,8.4-10.7,15.8-10.7h1.6c7.4,0,12.6,4,15.6,10.7l42.7,96.4&#10;&#9;&#9;&#9;c0.9,1.9,1.4,3.7,1.4,5.4c0,7.2-5.6,13-12.8,13c-6.3,0-10.5-3.7-13-9.3l-8.2-19.2H317l-8.6,20.1c-2.3,5.3-6.8,8.4-12.4,8.4&#10;&#9;&#9;&#9;c-7,0-12.4-5.6-12.4-12.6C283.6,586.5,284.3,584.6,285.2,582.7z M361,548.7l-17-40.4l-17,40.4H361z"/></g><g class="st6"><path class="st2" d="M744.8,491c0-7.5,6-13.5,13.5-13.5h43.4c14,0,25,3.8,32,10.8c5.6,5.6,8.4,12.4,8.4,20.8v0.3&#10;&#9;&#9;&#9;c0,13.8-7.3,21.5-16.1,26.4c14.2,5.4,22.9,13.7,22.9,30.1v0.3c0,22.4-18.2,33.6-45.9,33.6h-44.8c-7.5,0-13.5-6-13.5-13.5V491z&#10;&#9;&#9;&#9; M795.9,527c11.9,0,19.4-3.8,19.4-13v-0.3c0-8-6.3-12.6-17.7-12.6H771V527H795.9z M803.1,576.4c11.9,0,19.1-4.2,19.1-13.3v-0.3&#10;&#9;&#9;&#9;c0-8.2-6.1-13.3-20-13.3H771v27H803.1z"/></g><g class="st6"><path class="st2" d="M286.6,796v-0.3c0-34.8,26.2-63.4,63.9-63.4c18.4,0,30.8,4.9,41,12.4c2.8,2.1,5.2,6,5.2,10.7&#10;&#9;&#9;&#9;c0,7.4-6,13.1-13.3,13.1c-3.7,0-6.1-1.4-8-2.6c-7.5-5.6-15.4-8.8-25-8.8c-20.7,0-35.5,17.2-35.5,38.2v0.4&#10;&#9;&#9;&#9;c0,21,14.5,38.5,35.5,38.5c11.4,0,18.9-3.5,26.6-9.6c2.1-1.8,4.9-3,8.1-3c6.8,0,12.6,5.6,12.6,12.4c0,4.2-2.1,7.5-4.5,9.6&#10;&#9;&#9;&#9;c-11,9.6-24,15.4-43.6,15.4C313.4,859,286.6,831.2,286.6,796z"/></g></g></svg>