<svg xmlns="http://www.w3.org/2000/svg" preserveAspectRatio="xMinYMin meet" viewBox="0 0 24 24" class="twitter-icon" aria-labelledby="twitterIcon4626192" role="img"><title id="twitterIcon4626192">Twitter</title><path d="M19,8.3c-0.5,0.2-1,0.4-1.5,0.4c0.6-0.3,1-0.9,1.2-1.5c-0.5,0.3-1.1,0.5-1.7,0.7C16.5,7.3,15.8,7,15,7&#10;&#9;&#9;c-1.5,0-2.7,1.2-2.7,2.8c0,0.2,0,0.4,0.1,0.6c-2.2-0.1-4.2-1.2-5.5-2.9C6.7,7.9,6.5,8.4,6.5,8.9c0,1,0.4,1.8,1.2,2.3&#10;&#9;&#9;c-0.4,0-1.2-0.1-1.2-0.3c0,0,0,0,0,0c0,1.3,0.9,2.5,2.2,2.7c-0.2,0.1-0.4,0.1-0.7,0.1c-0.2,0-0.3,0-0.5-0.1c0.3,1.1,1.3,1.9,2.5,1.9&#10;&#9;&#9;c-0.9,0.7-2.1,1.2-3.3,1.2c-0.2,0-0.4,0-0.6,0c1.2,0.8,2.6,1.2,4.1,1.2c4.9,0,7.6-4.2,7.6-7.9c0-0.1,0-0.2,0-0.4&#10;&#9;&#9;C18.2,9.4,18.6,8.9,19,8.3z"/></svg>