<svg xmlns="http://www.w3.org/2000/svg" preserveAspectRatio="xMinYMin meet" viewBox="0 0 24 24" class="linked-in-icon" aria-labelledby="linkedinIcon2654758" role="img"><title id="linkedinIcon2654758">LinkedIn</title><path d="M17.5,5.5h-11C6,5.5,5.6,6,5.5,6.5v11.1c0,0.5,0.4,0.9,1,0.9h11c0.5,0,0.9-0.4,1-0.9V6.5C18.5,6,18.1,5.5,17.5,5.5z&#10;&#9; M9.4,16.6H7.5v-6.2h1.9V16.6z M8.4,9.5C7.8,9.5,7.3,9,7.3,8.4s0.5-1.1,1.1-1.1s1.1,0.5,1.1,1.1S9,9.5,8.4,9.5z M16.6,16.6h-1.9v-3&#10;&#9;c0-0.7,0-1.7-1-1.7s-1.2,0.8-1.2,1.6v3.1h-1.9v-6.2h1.8v0.9c0.4-0.6,1-1,1.8-1c2,0,2.3,1.3,2.3,3L16.6,16.6z"/></svg>