<svg xmlns="http://www.w3.org/2000/svg" preserveAspectRatio="xMinYMin meet" viewBox="0 0 24 24" class="instagram-icon" aria-labelledby="instagramIcon7507916" role="img"><title id="instagramIcon7507916">Instagram</title><path d="M16.6,18.5H7.4c-1,0-1.9-0.8-1.9-1.9V7.4c0-1,0.8-1.9,1.9-1.9h9.3c1,0,1.9,0.8,1.9,1.9v9.3C18.5,17.7,17.7,18.5,16.6,18.5z&#10;&#9; M12,10.1c-1,0-1.9,0.8-1.9,1.9s0.8,1.9,1.9,1.9s1.9-0.8,1.9-1.9S13,10.1,12,10.1z M15.7,7.4c-0.6,0-0.9,0.4-0.9,0.9&#10;&#9;s0.4,0.9,0.9,0.9s0.9-0.4,0.9-0.9S16.3,7.4,15.7,7.4z M16.6,12h-0.9c0,2-1.7,3.7-3.7,3.7S8.3,14,8.3,12H7.4v3.7&#10;&#9;c0,0.6,0.4,0.9,0.9,0.9h7.4c0.6,0,0.9-0.4,0.9-0.9V12z"/></svg>