<svg xmlns="http://www.w3.org/2000/svg" preserveAspectRatio="xMinYMin meet" viewBox="0 0 24 24" class="youtube-icon" aria-labelledby="youtubeIcon9646434" role="img"><title id="youtubeIcon9646434">YouTube</title><path d="M19.5,8.2c-0.2-0.7-0.7-1.2-1.4-1.4C16.9,6.5,12,6.5,12,6.5s-4.9,0-6.1,0.3C5.2,7,4.7,7.6,4.5,8.2C4.2,9.5,4.2,12,4.2,12&#10;&#9;s0,2.5,0.3,3.8c0.2,0.7,0.7,1.2,1.4,1.4c1.2,0.3,6.1,0.3,6.1,0.3s4.9,0,6.1-0.3c0.7-0.2,1.2-0.7,1.4-1.4c0.3-1.2,0.3-3.8,0.3-3.8&#10;&#9;S19.8,9.5,19.5,8.2z M9.9,15V9l5.2,3L9.9,15z"/></svg>